<svg width="28" height="22" viewBox="0 0 28 22" fill="none" xmlns="http://www.w3.org/2000/svg">
<path d="M16.8 12.375H23.8V9.625H16.8V12.375ZM16.8 8.25H23.8V5.5H16.8V8.25ZM4.2 16.5H15.4V15.7437C15.4 14.7125 14.8867 13.8935 13.86 13.2866C12.8333 12.6798 11.48 12.3759 9.8 12.375C8.12 12.3741 6.76667 12.678 5.74 13.2866C4.71333 13.8953 4.2 14.7143 4.2 15.7437V16.5ZM9.8 11C10.57 11 11.2294 10.731 11.7782 10.1929C12.327 9.65479 12.6009 9.00717 12.6 8.25C12.5991 7.49283 12.3251 6.84567 11.7782 6.3085C11.2313 5.77133 10.5719 5.50183 9.8 5.5C9.02813 5.49817 8.3692 5.76767 7.8232 6.3085C7.2772 6.84933 7.0028 7.4965 7 8.25C6.9972 9.0035 7.2716 9.65112 7.8232 10.1929C8.3748 10.7346 9.03373 11.0037 9.8 11ZM2.8 22C2.03 22 1.37107 21.731 0.8232 21.1929C0.275333 20.6548 0.000933333 20.0072 0 19.25V2.75C0 1.99375 0.2744 1.34658 0.8232 0.8085C1.372 0.270416 2.03093 0.000916667 2.8 0H25.2C25.97 0 26.6294 0.2695 27.1782 0.8085C27.727 1.3475 28.0009 1.99467 28 2.75V19.25C28 20.0062 27.7261 20.6539 27.1782 21.1929C26.6303 21.7319 25.9709 22.0009 25.2 22H2.8Z" fill="black"/>
</svg>
