<svg width="24" height="23" viewBox="0 0 24 23" fill="none" xmlns="http://www.w3.org/2000/svg">
<path d="M2.33333 22.1667C1.69167 22.1667 1.14256 21.9384 0.686 21.4818C0.229444 21.0253 0.000777778 20.4758 0 19.8333V7C0 6.35833 0.228667 5.80922 0.686 5.35267C1.14333 4.89611 1.69244 4.66744 2.33333 4.66667H7V2.33333C7 1.69167 7.22867 1.14256 7.686 0.686C8.14333 0.229444 8.69244 0.000777778 9.33333 0H14C14.6417 0 15.1912 0.228667 15.6485 0.686C16.1058 1.14333 16.3341 1.69244 16.3333 2.33333V4.66667H21C21.6417 4.66667 22.1912 4.89533 22.6485 5.35267C23.1058 5.81 23.3341 6.35911 23.3333 7V19.8333C23.3333 20.475 23.1051 21.0245 22.6485 21.4818C22.1919 21.9392 21.6424 22.1674 21 22.1667H2.33333ZM9.33333 4.66667H14V2.33333H9.33333V4.66667Z" fill="black"/>
</svg>
