<svg width="23" height="23" viewBox="0 0 23 23" fill="none" xmlns="http://www.w3.org/2000/svg">
<path d="M21.7222 11.5C21.3815 11.5 21.0782 11.3773 20.8124 11.132C20.5467 10.8867 20.3921 10.5834 20.3486 10.2222C20.0718 8.24167 19.2357 6.55372 17.8403 5.15839C16.445 3.76306 14.7575 2.92782 12.7778 2.65267C12.4157 2.61007 12.1125 2.461 11.868 2.20544C11.6235 1.94989 11.5009 1.64067 11.5 1.27778C11.4991 0.914889 11.6269 0.61163 11.8833 0.368C12.1397 0.124371 12.4379 0.0229999 12.7778 0.0638888C15.4611 0.362037 17.7505 1.4588 19.6458 3.35417C21.5412 5.24954 22.638 7.53889 22.9361 10.2222C22.9787 10.563 22.8773 10.8611 22.632 11.1167C22.3867 11.3722 22.0834 11.5 21.7222 11.5ZM16.3875 11.5C16.1106 11.5 15.8657 11.4042 15.6528 11.2125C15.4398 11.0208 15.2801 10.7653 15.1736 10.4458C15.0032 9.82824 14.6783 9.28007 14.1987 8.80133C13.7191 8.32259 13.1709 7.99761 12.5542 7.82639C12.2347 7.71991 11.9792 7.56019 11.7875 7.34722C11.5958 7.13426 11.5 6.8787 11.5 6.58055C11.5 6.15463 11.6491 5.80878 11.9472 5.543C12.2454 5.27722 12.5755 5.1865 12.9375 5.27083C14.1301 5.54769 15.1579 6.11757 16.0208 6.9805C16.8837 7.84343 17.4532 8.87076 17.7292 10.0625C17.8144 10.4245 17.7185 10.7546 17.4417 11.0528C17.1648 11.3509 16.8134 11.5 16.3875 11.5ZM21.6583 23C18.9963 23 16.3662 22.4199 13.7681 21.2597C11.1699 20.0994 8.80602 18.4541 6.67639 16.3236C4.54676 14.1931 2.90183 11.8292 1.74161 9.23195C0.581389 6.63465 0.000851852 4.00456 0 1.34167C0 0.958334 0.127778 0.638889 0.383333 0.383333C0.638889 0.127778 0.958334 0 1.34167 0H6.51667C6.81482 0 7.08102 0.10137 7.31528 0.304111C7.54954 0.506852 7.68796 0.746222 7.73056 1.02222L8.56111 5.49444C8.6037 5.83519 8.59306 6.12268 8.52917 6.35694C8.46528 6.5912 8.34815 6.79352 8.17778 6.96389L5.07917 10.0944C5.50509 10.8824 6.01067 11.6435 6.59589 12.3778C7.18111 13.1121 7.82554 13.8204 8.52917 14.5028C9.18935 15.163 9.88148 15.7754 10.6056 16.3402C11.3296 16.905 12.0963 17.4212 12.9056 17.8889L15.9083 14.8861C16.1 14.6944 16.3504 14.5509 16.6597 14.4555C16.9689 14.3601 17.2721 14.3333 17.5694 14.375L21.9778 15.2694C22.2759 15.3546 22.5208 15.5092 22.7125 15.7333C22.9042 15.9573 23 16.2073 23 16.4833V21.6583C23 22.0417 22.8722 22.3611 22.6167 22.6167C22.3611 22.8722 22.0417 23 21.6583 23Z" fill="black"/>
</svg>
