<svg width="28" height="28" viewBox="0 0 28 28" fill="current" xmlns="http://www.w3.org/2000/svg">
<path d="M5.39 21.14C6.58 20.23 7.91 19.5127 9.38 18.9882C10.85 18.4637 12.39 18.2009 14 18.2C15.61 18.1991 17.15 18.4618 18.62 18.9882C20.09 19.5146 21.42 20.2319 22.61 21.14C23.4267 20.1833 24.0627 19.0983 24.5182 17.885C24.9737 16.6717 25.2009 15.3767 25.2 14C25.2 10.8967 24.1094 8.25393 21.9282 6.0718C19.747 3.88967 17.1043 2.79907 14 2.8C10.8957 2.80093 8.253 3.892 6.0718 6.0732C3.8906 8.2544 2.8 10.8967 2.8 14C2.8 15.3767 3.02773 16.6717 3.4832 17.885C3.93867 19.0983 4.57427 20.1833 5.39 21.14ZM14 15.4C12.6233 15.4 11.4623 14.9277 10.5168 13.9832C9.57133 13.0387 9.09906 11.8776 9.1 10.5C9.10093 9.1224 9.57366 7.96133 10.5182 7.0168C11.4627 6.07227 12.6233 5.6 14 5.6C15.3767 5.6 16.5377 6.07273 17.4832 7.0182C18.4287 7.96366 18.9009 9.12426 18.9 10.5C18.8991 11.8757 18.4268 13.0368 17.4832 13.9832C16.5396 14.9296 15.3785 15.4019 14 15.4ZM14 28C12.0633 28 10.2433 27.6323 8.54 26.8968C6.83666 26.1613 5.355 25.1641 4.095 23.905C2.835 22.6459 1.83773 21.1643 1.1032 19.46C0.368668 17.7557 0.000935105 15.9357 1.77215e-06 14C-0.000931561 12.0643 0.366802 10.2443 1.1032 8.54C1.8396 6.83573 2.83687 5.35407 4.095 4.095C5.35313 2.83593 6.8348 1.83867 8.54 1.1032C10.2452 0.367733 12.0652 0 14 0C15.9348 0 17.7548 0.367733 19.46 1.1032C21.1652 1.83867 22.6469 2.83593 23.905 4.095C25.1631 5.35407 26.1609 6.83573 26.8982 8.54C27.6355 10.2443 28.0028 12.0643 28 14C27.9972 15.9357 27.6294 17.7557 26.8968 19.46C26.1641 21.1643 25.1669 22.6459 23.905 23.905C22.6431 25.1641 21.1615 26.1618 19.46 26.8982C17.7585 27.6346 15.9385 28.0019 14 28Z" fill="current"/>
</svg>
