<svg width="28" height="28" viewBox="0 0 28 28" fill="none" xmlns="http://www.w3.org/2000/svg">
<path d="M11 14.5221V14.0684M17 14.5221V14.0684M13.8 10.6657V9.30469" stroke="#0158FE" stroke-width="2.5" stroke-linecap="round"/>
<path d="M2 14C2 7.37257 7.37257 2 14 2C20.6274 2 26 7.37257 26 14V22.5714C26 22.9694 26 23.1685 25.9813 23.336C25.8245 24.7268 24.7268 25.8245 23.336 25.9813C23.1685 26 22.9694 26 22.5714 26H14C7.37257 26 2 20.6274 2 14Z" stroke="#0158FE" stroke-width="2.5"/>
<path d="M17.2308 11.3906H10.7692C9.23983 11.3906 8 12.4418 8 13.7385V16.3471C8 17.6438 9.23983 18.695 10.7692 18.695H17.2308C18.7602 18.695 20 17.6438 20 16.3471V13.7385C20 12.4418 18.7602 11.3906 17.2308 11.3906Z" stroke="#0158FE" stroke-width="2.5"/>
</svg>
