<svg width="29" height="27" viewBox="0 0 29 27" fill="current" xmlns="http://www.w3.org/2000/svg">
<path d="M14.5 0.222656C14.1951 0.222675 13.9022 0.336406 13.6842 0.539497L0.958008 10.4527C0.943309 10.4632 0.928874 10.4741 0.914714 10.4852L0.871419 10.52V10.5221C0.754406 10.626 0.661054 10.7516 0.59716 10.8912C0.533266 11.0308 0.500195 11.1815 0.5 11.3338C0.5 11.6285 0.622916 11.9111 0.841709 12.1194C1.0605 12.3278 1.35725 12.4449 1.66667 12.4449H2.83333V24.6671C2.83333 25.8949 3.8775 26.8893 5.16667 26.8893H23.8333C25.1225 26.8893 26.1667 25.8949 26.1667 24.6671V12.4449H27.3333C27.6428 12.4449 27.9395 12.3278 28.1583 12.1194C28.3771 11.9111 28.5 11.6285 28.5 11.3338C28.5001 11.1811 28.4672 11.03 28.4033 10.89C28.3394 10.75 28.2459 10.624 28.1286 10.52L28.1104 10.5069C28.0848 10.4849 28.0581 10.4639 28.0306 10.444L26.1667 8.99219V4.6671C26.1667 4.05377 25.644 3.55599 25 3.55599H23.8333C23.1893 3.55599 22.6667 4.05377 22.6667 4.6671V6.26649L15.2907 0.519965C15.0758 0.329685 14.7934 0.223529 14.5 0.222656ZM18 14.6671H22.6667V23.556H18V14.6671Z" fill="current"/>
</svg>
